<svg width="477" height="407" viewBox="0 0 477 407" fill="none" xmlns="http://www.w3.org/2000/svg">
<path d="M0.00460815 406.16C0.00460815 406.16 137.46 407.678 138.598 403.978C139.736 400.279 140.306 353.607 138.598 353.037C136.891 352.468 118.677 357.022 109.001 331.694C99.3251 306.365 97.6176 234.934 107.009 232.088C116.4 229.243 138.029 241.195 128.353 241.48C118.677 241.764 105.871 235.219 105.586 225.543C105.301 215.867 115.357 184.942 126.74 178.491C138.124 172.041 149.128 172.041 152.732 172.42C156.337 172.8 160.891 175.835 158.234 176.025C155.578 176.215 150.835 171.282 153.491 165.78C156.148 160.278 168.48 153.637 174.93 152.12C181.381 150.602 182.899 151.93 184.796 148.705C186.693 145.479 191.752 137.764 194.535 137.637C197.318 137.511 197.824 140.42 197.318 141.558C196.812 142.697 191.879 148.136 190.108 153.195C188.337 158.254 185.428 167.108 186.82 168.499C188.211 169.891 194.408 173.685 195.167 184.057C195.926 194.428 190.108 208.594 186.567 215.298C183.025 222.001 170.282 247.171 166.772 247.551C163.262 247.93 162.219 246.792 162.503 246.223C162.788 245.654 171.389 234.27 179.863 219.219C188.337 204.167 192.638 184.689 188.59 179.124C184.543 173.559 173.286 171.788 169.997 174.191C166.709 176.594 160.891 187.788 162.029 192.531C163.167 197.274 177.396 221.559 177.017 213.211C176.638 204.863 167.91 188.167 165.634 189.306C163.357 190.444 153.934 207.329 151.278 219.598C148.622 231.867 150.171 243.187 153.681 246.128C157.191 249.069 164.116 249.448 166.582 248.436C169.049 247.424 171.325 246.16 172.148 247.361C172.97 248.563 171.262 252.421 169.997 252.737C168.733 253.053 166.266 251.851 165.065 251.915C163.863 251.978 159.373 252.926 154.756 251.219C150.14 249.511 144.954 245.527 143.183 246.602C141.412 247.677 143.183 251.662 144.511 252.104C145.839 252.547 147.673 251.915 148.179 252.168C148.685 252.421 150.393 253.938 153.491 254.002C156.59 254.065 159.057 253.875 157.349 253.243C155.642 252.61 151.721 251.851 150.709 251.029C149.697 250.207 143.057 242.239 146.092 222.318C149.128 202.397 157.096 175.709 165.065 170.902C173.033 166.096 178.851 169.258 180.495 167.487C182.14 165.717 184.48 150.602 187.958 146.428C191.436 142.254 199.31 135.614 201.017 130.491C202.725 125.369 201.239 109.432 199.468 105.258C197.697 101.084 196.559 98.8073 196.432 95.5187C196.306 92.2302 195.673 84.1353 197.065 86.2856C198.456 88.4358 197.191 100.958 192.258 97.5425C187.326 94.1275 184.227 77.8429 185.27 74.4278C186.314 71.0128 189.729 69.1154 191.531 73.0049C193.333 76.8943 195.705 79.0761 196.274 76.9891C196.843 74.9022 195.673 58.2064 197.697 54.9179C199.721 51.6293 204.907 46.0641 204.78 39.9929C204.654 33.9218 202.25 32.0246 205.792 27.5977C209.333 23.1707 230.456 18.9969 246.646 23.1707C262.836 27.3447 267.262 30.6332 265.871 35.566C264.48 40.4988 263.974 46.0641 265.365 48.9731C266.756 51.8822 271.31 53.9059 270.804 62.1274C270.298 70.3487 268.226 84.3884 270.843 82.1116C273.46 79.8349 277.381 71.1077 277.634 60.483C277.887 49.8585 275.105 30.6331 267.136 19.7556C259.168 8.87809 242.472 -0.861054 227.547 0.656735C212.622 2.17452 198.076 15.5816 193.144 30.0007C188.211 44.4198 188.59 53.6529 188.495 59.155C188.4 64.657 188.495 69.5898 189.539 69.1154C190.582 68.6411 197.982 51.566 198.646 43.5975C199.31 35.6292 200.827 25.9532 206.235 19.3129C211.642 12.6726 234.503 9.82675 249.302 15.2339C264.1 20.641 268.369 31.4553 270.551 38.1905C272.733 44.9257 273.871 51.6609 273.397 60.1985C272.923 68.7362 271.025 71.7717 273.871 71.7717C276.717 71.7717 282.029 71.1077 282.788 74.1433C283.547 77.1788 280.037 84.673 278.52 88.2777C277.002 91.8824 273.397 100.61 271.12 98.6177C268.844 96.6256 269.508 86.9497 270.931 88.752C272.354 90.5545 265.808 111.803 258.219 115.883C250.63 119.962 230.235 121.1 220.084 118.823C209.934 116.546 204.337 109.906 203.863 112.373C203.389 114.839 202.63 127.361 204.527 129.258C206.424 131.155 225.302 145.734 224.258 147.836C223.215 149.938 206.677 171.661 203.515 170.27C200.353 168.879 189.982 156.104 193.017 156.231C196.053 156.357 204.337 179.061 206.614 189.116C208.891 199.171 224.258 256.658 220.464 257.606C216.669 258.555 203.768 263.298 201.491 255.52C199.215 247.741 180.622 218.523 187.262 222.128C193.902 225.733 206.424 253.622 209.839 254.191C213.254 254.761 223.879 254.191 224.638 252.674C225.396 251.156 232.416 227.82 235.452 219.472C238.487 211.124 241.713 208.847 241.333 202.207C240.954 195.567 239.246 178.302 233.744 176.405C228.242 174.507 221.412 174.128 220.464 175.266C219.515 176.405 207.752 196.136 211.736 195.567C215.721 194.998 219.705 179.915 219.989 174.128C220.274 168.341 216.859 156.389 223.309 153.069C229.76 149.748 236.685 149.938 242.567 146.238C248.448 142.539 257.934 136.373 260.211 132.294C262.487 128.215 265.903 115.219 262.108 118.918C258.314 122.618 259.073 132.294 260.875 135.709C262.677 139.124 269.033 140.547 266.946 151.93C264.859 163.314 241.839 203.914 243.23 198.476C244.622 193.037 253.982 178.871 252.97 171.914C251.958 164.958 243.61 157.369 240.827 158.887C238.045 160.404 231.468 175.456 235.009 172.673C238.551 169.891 243.61 159.899 242.851 156.104C242.092 152.309 238.93 152.815 242.345 150.033C245.76 147.25 258.408 136.12 259.8 137.638C261.191 139.155 261.444 141.053 263.088 141.559C264.732 142.064 268.148 141.432 271.563 143.709C274.978 145.985 283.072 152.499 285.539 166.918C288.005 181.337 285.918 202.207 285.539 213.78C285.16 225.353 283.325 239.962 283.958 240.594C284.59 241.227 290.756 251.251 288.669 255.14C286.583 259.029 269.982 262.255 267.041 258.27C264.1 254.286 267.231 246.223 270.076 242.903C272.922 239.583 276.527 238.255 276.053 240.816C275.578 243.377 270.266 253.622 274.345 255.994C278.424 258.365 284.875 256.658 285.634 251.63C286.393 246.602 277.286 241.764 278.045 237.97C278.804 234.176 283.705 195.946 280.29 195.44C276.875 194.934 256.511 206.95 247.025 216.816C237.539 226.682 227.547 265.385 226.914 260.326C226.282 255.267 230.835 231.488 240.827 216.942C250.819 202.397 281.428 195.44 278.266 190.887C275.104 186.333 270.677 181.78 273.333 182.16C275.99 182.539 282.408 185.037 282.408 187.503C282.408 189.97 281.08 195.472 280.511 192.436C279.942 189.401 282.883 181.717 280.606 172.989C278.329 164.262 265.333 147.092 271.12 147.092C276.907 147.092 279.195 159.888 282.061 161.922C284.927 163.956 304.227 172.325 319.879 175.456C335.531 178.586 342.361 179.725 346.345 188.547C350.33 197.369 360.859 222.413 359.436 252.294C358.014 282.176 350.045 331.694 324.432 334.255C298.82 336.816 258.408 315.093 254.424 322.113C250.44 329.132 250.44 345.069 245.887 346.777C241.333 348.484 209.839 345.259 193.713 346.397C177.586 347.536 139.072 357.781 141.728 351.71C144.384 345.638 222.361 342.603 225.207 339.567C228.053 336.532 228.622 314.713 233.555 313.006C238.487 311.298 258.029 315.093 251.768 316.611C245.507 318.128 211.989 316.864 206.804 309.275C201.618 301.686 203.009 297.006 197.191 296.373C191.373 295.741 178.218 292.958 164.811 291.061C151.404 289.164 116.242 309.401 126.866 308.389C137.491 307.377 160.637 295.994 158.361 289.037C156.084 282.081 153.934 272.595 157.855 268.294C161.776 263.994 174.297 263.488 171.262 265.006C168.226 266.523 159.752 266.27 159.878 262.349C160.005 258.428 159.625 254.76 163.167 254.887C166.708 255.013 169.744 257.543 173.032 257.037C176.321 256.531 183.151 255.772 185.175 257.29C187.199 258.808 187.641 265.764 196.179 265.575C204.716 265.385 219.515 261.401 221.033 263.677C222.55 265.954 232.985 307.124 224.448 308.642C215.91 310.16 208.321 308.832 206.803 302.381C205.285 295.931 202.819 271.266 206.044 268.8C209.27 266.334 229.95 265.006 237.918 263.677C245.886 262.349 274.724 261.717 279.657 264.879C284.59 268.041 310.519 304.342 297.618 295.741C284.716 287.14 277.381 264.12 283.958 261.59C290.535 259.061 307.483 256.025 317.982 255.266C328.48 254.507 331.895 252.99 330.883 250.207C329.871 247.424 326.14 245.179 320.069 245.464C313.997 245.748 302.14 248.784 306.693 249.828C311.246 250.871 330.503 246.887 323.958 242.903C317.412 238.918 302.899 242.334 297.966 246.128C293.033 249.922 286.867 255.614 290.661 255.899C294.456 256.183 301.033 247.298 303.689 236.673C306.345 226.049 308.875 194.302 323.167 191.013C337.46 187.724 347.831 191.772 345.681 197.337C343.531 202.902 327.721 216.057 335.942 216.183C344.163 216.31 353.27 209.227 349.982 217.448C346.693 225.669 334.298 238.191 342.519 238.318C350.74 238.444 356.306 242.997 353.523 247.551C350.74 252.104 342.898 259.314 343.784 266.144C344.669 272.974 351.626 283.219 346.061 296.753C340.495 310.286 324.147 327.994 322.44 340.8C320.732 353.607 321.017 406.397 323.294 406.468C325.57 406.54 476.591 406.468 476.591 406.468" stroke="white" stroke-miterlimit="10"/>
</svg>
